<?xml version="1.0" standalone="no"?>
<!DOCTYPE svg PUBLIC "-//W3C//DTD SVG 20010904//EN"
 "http://www.w3.org/TR/2001/REC-SVG-20010904/DTD/svg10.dtd">
<svg version="1.0" xmlns="http://www.w3.org/2000/svg"
 width="261.000000pt" height="261.000000pt" viewBox="0 0 261.000000 261.000000"
 preserveAspectRatio="xMidYMid meet">
<metadata>
Created by potrace 1.14, written by Peter Selinger 2001-2017
</metadata>
<g transform="translate(0.000000,261.000000) scale(0.100000,-0.100000)"
fill="#000000" stroke="none">
<path d="M1155 2433 c-159 -28 -261 -61 -375 -120 -492 -253 -730 -833 -559
-1363 92 -282 301 -526 569 -660 198 -100 414 -139 635 -116 90 9 236 47 328
86 169 70 368 233 480 391 92 131 163 303 191 464 17 102 13 326 -7 420 -104
463 -461 809 -920 889 -73 13 -291 19 -342 9z m240 -227 c304 -26 594 -232
727 -518 26 -54 61 -160 74 -223 13 -65 12 -260 -3 -325 -8 -36 -16 -76 -19
-90 -8 -39 -64 -160 -104 -227 -85 -140 -230 -267 -386 -339 -433 -200 -951
-31 -1177 386 -195 360 -129 793 163 1080 156 152 348 241 555 256 44 3 82 8
83 9 2 2 9 2 15 0 7 -2 39 -6 72 -9z"/>
<path d="M785 1685 c-67 -31 -99 -83 -99 -161 -1 -178 260 -229 326 -64 58
144 -89 290 -227 225z"/>
<path d="M1672 1679 c-67 -41 -94 -96 -85 -171 10 -89 78 -148 170 -148 150 0
222 181 116 292 -47 50 -144 63 -201 27z"/>
<path d="M1200 1023 c-91 -17 -233 -83 -317 -147 -35 -26 -63 -51 -63 -55 0
-4 36 -42 80 -84 l79 -77 48 36 c177 136 384 136 553 1 l45 -37 80 81 80 80
-40 36 c-161 143 -355 203 -545 166z"/>
</g>
</svg>
